<svg width="40" height="40" viewBox="0 0 40 40" fill="none" xmlns="http://www.w3.org/2000/svg">
<rect x="0.5" y="0.5" width="39" height="39" rx="19.5" stroke="#828283"/>
<g clip-path="url(#clip0_11_184)">
<path d="M28 20.049C28 15.603 24.418 11.999 20 11.999C15.58 12 11.998 15.603 11.998 20.05C11.998 24.067 14.924 27.397 18.748 28.001V22.376H16.718V20.05H18.75V18.275C18.75 16.258 19.945 15.144 21.772 15.144C22.648 15.144 23.563 15.301 23.563 15.301V17.281H22.554C21.561 17.281 21.251 17.902 21.251 18.539V20.049H23.469L23.115 22.375H21.25V28C25.074 27.396 28 24.066 28 20.049Z" fill="#0A1120"/>
</g>
<defs>
<clipPath id="clip0_11_184">
<rect width="16" height="16" fill="white" transform="translate(12 12)"/>
</clipPath>
</defs>
</svg>
